<?xml version="1.0" standalone="no"?>
<!DOCTYPE svg PUBLIC "-//W3C//DTD SVG 20010904//EN"
 "http://www.w3.org/TR/2001/REC-SVG-20010904/DTD/svg10.dtd">
<svg version="1.0" xmlns="http://www.w3.org/2000/svg"
 width="1024.000000pt" height="1024.000000pt" viewBox="0 0 1024.000000 1024.000000"
 preserveAspectRatio="xMidYMid meet">

<g transform="translate(0.000000,1024.000000) scale(0.100000,-0.100000)"
fill="#000000" stroke="none">
<path d="M4395 9103 c-1052 -99 -1978 -708 -2488 -1638 -402 -733 -491 -1635
-241 -2440 164 -529 477 -1022 879 -1387 477 -434 1035 -699 1680 -800 188
-29 596 -36 795 -14 266 31 523 92 770 183 124 45 412 185 518 251 46 29 87
52 91 52 5 0 25 -28 45 -62 20 -35 63 -95 94 -134 110 -136 1437 -1670 1511
-1747 140 -146 308 -236 439 -237 75 0 116 16 159 61 46 48 63 106 63 209 0
166 -92 392 -229 563 -84 104 -1438 1676 -1497 1737 -24 25 -44 50 -44 56 0 5
21 30 46 54 25 25 91 101 147 170 382 473 618 1043 683 1650 22 208 15 595
-14 785 -100 645 -374 1216 -809 1688 -513 556 -1209 908 -1963 992 -124 14
-521 19 -635 8z m460 -543 c384 -28 695 -112 1034 -281 264 -131 476 -283 687
-494 407 -406 649 -885 741 -1470 22 -139 25 -533 5 -675 -83 -590 -333 -1094
-746 -1505 -204 -203 -415 -357 -657 -480 -404 -206 -789 -298 -1239 -298
-293 0 -518 33 -792 114 -585 174 -1127 583 -1463 1104 -542 839 -541 1941 2
2775 142 217 372 473 563 624 306 243 645 412 1014 506 300 76 561 101 851 80z"/>
</g>
</svg>
